<svg width="168" height="168" viewBox="0 0 168 168" fill="none" xmlns="http://www.w3.org/2000/svg">
<path d="M125.951 84.6489C125.951 107.84 107.253 126.64 84.1883 126.64C61.1234 126.64 42.4256 107.84 42.4256 84.6489C42.4256 61.4578 61.1234 42.6577 84.1883 42.6577C107.253 42.6577 125.951 61.4578 125.951 84.6489Z" fill="black"/>
<path d="M83.5254 41.9912C83.5254 65.1823 64.8276 83.9824 41.7627 83.9824C18.6978 83.9824 0 65.1823 0 41.9912C0 18.8001 18.6978 2.05214e-05 41.7627 2.05214e-05C64.8276 2.05214e-05 83.5254 18.8001 83.5254 41.9912Z" fill="black"/>
<path d="M167.051 41.9912C167.051 65.1823 148.353 83.9824 125.288 83.9824C102.223 83.9824 83.5254 65.1823 83.5254 41.9912C83.5254 18.8001 102.223 2.05214e-05 125.288 2.05214e-05C148.353 2.05214e-05 167.051 18.8001 167.051 41.9912Z" fill="#07C9F5"/>
<path d="M83.5254 125.974C83.5254 149.165 64.8276 167.965 41.7627 167.965C18.6978 167.965 0 149.165 0 125.974C0 102.782 18.6978 83.9824 41.7627 83.9824C64.8276 83.9824 83.5254 102.782 83.5254 125.974Z" fill="black"/>
<path d="M167.051 125.974C167.051 149.165 148.353 167.965 125.288 167.965C102.223 167.965 83.5254 149.165 83.5254 125.974C83.5254 102.782 102.223 83.9824 125.288 83.9824C148.353 83.9824 167.051 102.782 167.051 125.974Z" fill="#07C9F5"/>
<path d="M167.051 125.974C167.051 137.11 162.651 147.791 154.819 155.666C146.987 163.541 136.364 167.965 125.288 167.965C114.212 167.965 103.589 163.541 95.7574 155.666C87.9254 147.791 83.5254 137.11 83.5254 125.974H167.051Z" fill="black"/>
<path d="M125.041 0.000735132C136.117 -0.0651177 146.765 4.29571 154.644 12.1239C162.522 19.9521 166.985 30.6063 167.05 41.7429C167.116 52.8794 162.779 63.586 154.993 71.5073C147.207 79.4286 136.611 83.9158 125.535 83.9816L125.041 0.000735132Z" fill="black"/>
<path d="M83.5604 41.9912C83.565 47.5055 82.4894 52.9668 80.3948 58.0632C78.3003 63.1596 75.228 67.7912 71.3532 71.6937C67.4784 75.5963 62.8771 78.6932 57.812 80.8077C52.7469 82.9222 47.3171 84.013 41.8328 84.0176L41.7977 42.0264L83.5604 41.9912Z" fill="white"/>
<path d="M83.5604 125.974C83.565 131.488 82.4894 136.949 80.3948 142.046C78.3003 147.142 75.228 151.774 71.3532 155.676C67.4784 159.579 62.8771 162.676 57.812 164.79C52.7469 166.905 47.3171 167.995 41.8328 168L41.7977 126.009L83.5604 125.974Z" fill="#07C9F5"/>
<path d="M83.5604 126.044C83.565 120.53 82.4894 115.068 80.3948 109.972C78.3003 104.876 75.228 100.244 71.3532 96.3415C67.4784 92.4389 62.8771 89.342 57.812 87.2275C52.7469 85.113 47.3171 84.0222 41.8328 84.0176L41.7977 126.009L83.5604 126.044Z" fill="white"/>
<path d="M83.5604 126.044C83.5558 120.53 84.6315 115.068 86.7261 109.972C88.8206 104.876 91.8929 100.244 95.7677 96.3415C99.6425 92.4389 104.244 89.342 109.309 87.2275C114.374 85.113 119.804 84.0222 125.288 84.0176L125.323 126.009L83.5604 126.044Z" fill="white"/>
<path d="M83.5604 41.9912C83.5558 47.5055 84.6315 52.9668 86.7261 58.0632C88.8206 63.1596 91.8929 67.7912 95.7677 71.6937C99.6425 75.5963 104.244 78.6932 109.309 80.8077C114.374 82.9222 119.804 84.013 125.288 84.0176L125.323 42.0264L83.5604 41.9912Z" fill="white"/>
<path d="M0.0350607 41.9912C0.0304597 47.5055 1.10613 52.9668 3.20065 58.0632C5.29517 63.1596 8.36753 67.7912 12.2423 71.6937C16.1171 75.5963 20.7184 78.6932 25.7835 80.8077C30.8486 82.9222 36.2784 84.013 41.7627 84.0176L41.7977 42.0264L0.0350607 41.9912Z" fill="#07C9F5"/>
<path d="M119.985 121.06H46.403L49.0546 115.062H116.67L119.985 121.06Z" fill="#ECB600"/>
<path d="M107.39 95.7323H59.661L63.6384 88.4005H103.412L107.39 95.7323Z" fill="#ECB600"/>
<path d="M114.019 109.063H53.032L57.0094 101.731H110.041L114.019 109.063Z" fill="#ECB600"/>
<path d="M99.435 81.7352H66.29L69.6045 74.4034H96.7834L99.435 81.7352Z" fill="#ECB600"/>
<path d="M83.5254 47.9093C88.5469 47.9093 92.6316 52.0044 92.6318 57.0734C92.6318 62.1424 88.547 66.2384 83.5254 66.2384C78.5038 66.2384 74.4189 62.1425 74.4189 57.0734C74.4191 52.0044 78.5039 47.9093 83.5254 47.9093Z" stroke="#ECB600" stroke-width="3"/>
</svg>
